HIERARCHY
ROOT Hips
{
	OFFSET 0.000000 8.830580 0.000000
	CHANNELS 6 Xposition Yposition Zposition Zrotation Yrotation Xrotation 
	JOINT Spine
	{
		OFFSET 0.000000 0.010000 0.000000
		CHANNELS 3 Zrotation Yrotation Xrotation
		JOINT Spine1
		{
			OFFSET 0.000000 2.459130 0.000000
			CHANNELS 3 Zrotation Yrotation Xrotation
			JOINT Neck
			{
				OFFSET 0.000000 2.484630 0.000000
				CHANNELS 3 Zrotation Yrotation Xrotation
				JOINT Head_virtual
				{
					OFFSET 0.000000 0.000000 0.000000
					CHANNELS 3 Zrotation Yrotation Xrotation
					JOINT Head
					{
						OFFSET 0.000000 0.927525 0.000000
						CHANNELS 3 Zrotation Yrotation Xrotation
						End Site
						{
							OFFSET 0.000000 0.000000 0.000000
						}
					}
				}
				JOINT LeftUpArm_virtual
				{
					OFFSET 0.000000 0.000000 0.000000
					CHANNELS 3 Zrotation Yrotation Xrotation
					JOINT LeftUpArm
					{
						OFFSET 1.248820 0.000000 0.000000
						CHANNELS 3 Zrotation Yrotation Xrotation
						JOINT LeftForeArm
						{
							OFFSET 2.597580 0.000000 0.000000
							CHANNELS 3 Zrotation Yrotation Xrotation
							JOINT LeftHand
							{
								OFFSET 2.455420 0.000000 0.000000
								CHANNELS 3 Zrotation Yrotation Xrotation
								End Site
								{
									OFFSET 0.000000 0.000000 0.000000
								}
							}
						}
					}
				}
				JOINT RightUpArm_virtual
				{
					OFFSET -0.000000 -0.000000 -0.000000
					CHANNELS 3 Zrotation Yrotation Xrotation
					JOINT RightUpArm
					{
						OFFSET -1.248820 -0.000000 -0.000000
						CHANNELS 3 Zrotation Yrotation Xrotation
						JOINT RightForeArm
						{
							OFFSET -2.597580 -0.000000 -0.000000
							CHANNELS 3 Zrotation Yrotation Xrotation
							JOINT RightHand
							{
								OFFSET -2.455420 -0.000000 -0.000000
								CHANNELS 3 Zrotation Yrotation Xrotation
								End Site
								{
									OFFSET 0.000000 0.000000 0.000000
								}
							}
						}
					}
				}
			}
		}
	}
	JOINT LeftUpLeg
	{
		OFFSET 1.271939 0.000000 0.000000
		CHANNELS 3 Zrotation Yrotation Xrotation
		JOINT LeftLowLeg
		{
			OFFSET 0.000000 -4.342910 0.000000
			CHANNELS 3 Zrotation Yrotation Xrotation
			JOINT LeftFoot
			{
				OFFSET 0.000000 -4.487670 0.000000
				CHANNELS 3 Zrotation Yrotation Xrotation
				JOINT LeftToeBase
				{
					OFFSET 0.000000 0.000000 1.515070
					CHANNELS 3 Zrotation Yrotation Xrotation
					End Site
					{
						OFFSET 0.000000 0.000000 0.000000
					}
				}
			}
		}
	}
	JOINT RightUpLeg
	{
		OFFSET -1.271939 0.000000 0.000000
		CHANNELS 3 Zrotation Yrotation Xrotation
		JOINT RightLowLeg
		{
			OFFSET 0.000000 -4.342910 0.000000
			CHANNELS 3 Zrotation Yrotation Xrotation
			JOINT RightFoot
			{
				OFFSET 0.000000 -4.487670 0.000000
				CHANNELS 3 Zrotation Yrotation Xrotation
				JOINT RightToeBase
				{
					OFFSET 0.000000 0.000000 1.515070
					CHANNELS 3 Zrotation Yrotation Xrotation
					End Site
					{
						OFFSET 0.000000 0.000000 0.000000
					}
				}
			}
		}
	}
}
MOTION
Frames: 16
Frame Time: 0.041667
-16.260424 9.289175 38.302724 -172.561959 1.721958 177.655827 5.935737 -3.451275 -21.913196 1.973826 0.651623 34.203717 0.000000 0.000000 0.000000 -4.024274 0.459782 -16.237639 5.136505 6.582292 -74.543948 -31.487400 -2.641460 -8.954600 -36.822700 -1.041170 36.795200 0.000000 -29.179600 0.000000 8.188170 7.194010 -0.254815 28.177500 0.974302 -3.233330 39.055599 4.176520 29.146799 0.000000 26.120800 0.000000 -4.080100 -0.862903 -9.557170 9.403596 19.668627 11.544411 0.000000 0.000000 0.063819 -7.329846 8.232549 7.347921 0.000000 0.000000 -10.265190 8.613442 8.158473 7.845130 0.000000 0.000000 6.277300 14.149195 -20.612102 11.270065 0.000000 0.000000 -14.807071 
-16.259646 9.289626 38.307772 -172.571287 1.708945 177.638845 5.928319 -3.470818 -21.901243 1.965615 0.636663 34.257608 0.000000 0.000000 0.000000 -4.062848 0.458870 -16.231945 5.128098 6.581364 -74.560672 -31.452101 -2.660890 -8.934060 -36.831200 -1.084560 36.858398 0.000000 -29.116400 0.000000 8.308560 7.112990 -0.252539 28.172300 1.033020 -3.246570 38.969299 4.309880 28.984501 0.000000 26.338900 0.000000 -3.966030 -1.039590 -9.576910 9.394435 19.677103 11.519908 0.000000 0.000000 0.074931 -7.314162 8.230088 7.371826 0.000000 0.000000 -10.257850 8.609149 8.150459 7.824905 0.000000 0.000000 6.290160 14.116944 -20.632274 11.278037 0.000000 0.000000 -14.780680 
-16.258796 9.289990 38.312196 -172.570997 1.659901 177.619784 5.931060 -3.498019 -21.883069 1.929151 0.597690 34.290124 0.000000 0.000000 0.000000 -4.054774 0.450828 -16.216566 5.128924 6.575574 -74.567300 -31.459101 -2.671720 -8.933360 -36.758801 -1.092630 36.899601 0.000000 -29.097500 0.000000 8.261730 7.172890 -0.131622 28.185200 1.084490 -3.248640 38.868900 4.448470 29.000900 0.000000 26.483999 0.000000 -4.146640 -1.082140 -9.650210 9.391872 19.644779 11.485307 0.000000 0.000000 0.097880 -7.285595 8.230150 7.385702 0.000000 0.000000 -10.293260 8.623436 8.162239 7.806616 0.000000 0.000000 6.318380 14.157067 -20.675103 11.259216 0.000000 0.000000 -14.797455 
-16.257331 9.290283 38.315813 -172.559801 1.630879 177.596398 5.940518 -3.499512 -21.860757 1.892700 0.571182 34.321142 0.000000 0.000000 0.000000 -4.010133 0.431673 -16.174853 5.110864 6.570426 -74.602527 -31.420300 -2.701320 -8.916560 -36.745300 -1.077410 36.858002 0.000000 -29.063999 0.000000 8.154570 7.266130 -0.099874 28.201000 1.095340 -3.230900 38.784401 4.572810 28.889099 0.000000 26.673401 0.000000 -4.308300 -1.004870 -9.760070 9.419811 19.675217 11.477403 0.000000 0.000000 0.106715 -7.286942 8.182640 7.389554 0.000000 0.000000 -10.239310 8.651454 8.180857 7.783722 0.000000 0.000000 6.368350 14.154359 -20.716696 11.253203 0.000000 0.000000 -14.790737 
-16.256126 9.290857 38.320154 -172.546905 1.601302 177.561280 5.926132 -3.528962 -21.848956 1.950404 0.578485 34.445202 0.000000 0.000000 0.000000 -3.979325 0.384811 -16.214498 5.088333 6.528382 -74.618548 -31.357599 -2.777700 -8.947620 -36.835602 -1.074850 36.881199 0.000000 -28.925699 0.000000 8.067770 7.164810 -0.316590 28.141899 1.064550 -3.290340 38.762798 4.747900 28.771200 0.000000 26.749901 0.000000 -4.285170 -1.012520 -9.846410 9.454637 19.731721 11.491309 0.000000 0.000000 0.084705 -7.275140 8.119542 7.433491 0.000000 0.000000 -10.255820 8.674033 8.169434 7.740069 0.000000 0.000000 6.471570 14.163986 -20.726332 11.249072 0.000000 0.000000 -14.787842 
-16.254422 9.291746 38.324584 -172.527244 1.583423 177.530169 5.930199 -3.549804 -21.818905 1.951620 0.554862 34.529848 0.000000 0.000000 0.000000 -3.980195 0.364077 -16.140737 5.092481 6.527884 -74.747481 -31.411800 -2.795470 -8.924540 -36.671700 -1.061740 37.127102 0.000000 -29.002199 0.000000 8.188240 7.240460 -0.448466 28.143000 1.135050 -3.287240 38.654202 4.848600 28.621401 0.000000 26.925600 0.000000 -4.415660 -0.969326 -9.588310 9.487847 19.735359 11.505099 0.000000 0.000000 0.056221 -7.260337 8.096388 7.476531 0.000000 0.000000 -10.200900 8.711251 8.197165 7.681152 0.000000 0.000000 6.595890 14.185581 -20.764422 11.239410 0.000000 0.000000 -14.810629 
-16.252300 9.292521 38.330807 -172.517296 1.569181 177.493158 5.923674 -3.549385 -21.753848 1.933316 0.540995 34.648764 0.000000 0.000000 0.000000 -3.898838 0.340991 -16.088896 5.047730 6.544169 -74.909706 -31.390100 -2.829190 -8.952230 -36.641102 -1.085520 37.166599 0.000000 -28.934900 0.000000 8.165700 7.239910 -0.375834 28.155100 1.144540 -3.306090 38.574501 4.993890 28.548500 0.000000 27.050800 0.000000 -4.382070 -0.992746 -9.903800 9.508439 19.737439 11.495774 0.000000 0.000000 0.061776 -7.240871 8.117823 7.507746 0.000000 0.000000 -10.251460 8.732297 8.177840 7.591443 0.000000 0.000000 6.766450 14.187406 -20.744327 11.231743 0.000000 0.000000 -14.892862 
-16.249644 9.293488 38.338775 -172.516105 1.560568 177.426832 5.887797 -3.562917 -21.701566 1.960787 0.550116 34.975747 0.000000 0.000000 0.000000 -3.800530 0.284410 -16.343064 5.007105 6.487858 -74.912169 -31.271601 -2.866310 -9.097450 -36.733601 -1.153920 37.334099 0.000000 -28.844700 0.000000 8.263500 7.105650 -0.258825 28.056801 1.107770 -3.460810 38.617298 5.190230 28.557301 0.000000 27.182699 0.000000 -4.671440 -0.815919 -9.821380 9.528612 19.724438 11.492801 0.000000 0.000000 0.096567 -7.222326 8.136215 7.531128 0.000000 0.000000 -10.233850 8.776224 8.288397 7.521065 0.000000 0.000000 6.949570 14.213987 -20.850559 11.182828 0.000000 0.000000 -14.910632 
-16.246740 9.294534 38.348674 -172.513832 1.554953 177.369172 5.916638 -3.518555 -21.529401 1.755523 0.454074 35.088266 0.000000 0.000000 0.000000 -3.733862 0.327558 -16.277871 4.975043 6.578884 -75.149154 -31.238199 -2.848380 -9.061840 -36.564701 -1.212870 37.349499 0.000000 -28.880100 0.000000 8.156980 7.170020 -0.377345 28.163200 1.264520 -3.287420 38.477402 5.407400 28.313000 0.000000 27.371500 0.000000 -4.594350 -0.951966 -9.629610 9.543236 19.709302 11.455712 0.000000 0.000000 0.157813 -7.189314 8.164776 7.554080 0.000000 0.000000 -10.236410 8.812979 8.369667 7.412503 0.000000 0.000000 7.163560 14.230766 -20.923402 11.139578 0.000000 0.000000 -14.968169 
-16.244361 9.296336 38.360683 -172.519105 1.523556 177.300435 5.988905 -3.333908 -21.394987 1.386621 0.351218 35.384466 0.000000 0.000000 0.000000 -3.399291 0.362157 -16.346243 4.830981 6.681587 -75.273706 -31.052401 -2.948090 -9.089980 -36.424198 -1.264290 37.282299 0.000000 -28.977600 0.000000 8.016910 7.336770 -0.326870 28.322100 1.396370 -3.335480 38.390499 5.510350 28.334499 0.000000 27.603701 0.000000 -4.721310 -0.998510 -9.864120 9.534691 19.622226 11.396203 0.000000 0.000000 0.238151 -7.156978 8.226854 7.590980 0.000000 0.000000 -10.237930 8.834881 8.406542 7.300833 0.000000 0.000000 7.376600 14.247634 -20.991518 11.127880 0.000000 0.000000 -14.960138 
-16.241586 9.297324 38.374455 -172.513102 1.546946 177.241213 6.094434 -3.085379 -21.201714 0.955402 0.241458 35.645667 0.000000 0.000000 0.000000 -3.042264 0.409274 -16.414531 4.680772 6.797274 -75.374903 -30.733700 -3.025450 -9.129760 -36.394402 -1.317090 37.327099 0.000000 -29.013000 0.000000 8.077420 7.249030 -0.198788 28.460199 1.519330 -3.317550 38.367500 5.670680 28.231400 0.000000 27.777201 0.000000 -4.820810 -0.751868 -9.853100 9.542217 19.570327 11.360567 0.000000 0.000000 0.266885 -7.140018 8.292441 7.624663 0.000000 0.000000 -10.229470 8.864587 8.470163 7.156965 0.000000 0.000000 7.615080 14.293924 -21.025644 11.093288 0.000000 0.000000 -14.960518 
-16.238192 9.299714 38.389450 -172.497077 1.533014 177.226079 6.142728 -2.997720 -21.147925 0.756580 0.167462 36.207779 0.000000 0.000000 0.000000 -2.914129 0.448303 -16.637989 4.674439 6.832615 -75.315291 -30.489500 -3.172770 -9.284030 -36.340500 -1.373310 37.479500 0.000000 -29.187901 0.000000 8.206830 7.314280 -0.079812 28.374100 1.605510 -3.372770 38.428001 5.963020 28.243999 0.000000 28.023399 0.000000 -4.963880 -0.780837 -9.960700 9.551386 19.533898 11.261939 0.000000 0.000000 0.296427 -7.115083 8.311947 7.695094 0.000000 0.000000 -10.225560 8.892137 8.455357 6.971222 0.000000 0.000000 7.824810 14.254610 -21.043085 11.151864 0.000000 0.000000 -15.024503 
-16.235388 9.302796 38.410772 -172.470084 1.551916 177.236875 6.240408 -2.847733 -21.150571 0.479670 0.073099 37.047536 0.000000 0.000000 0.000000 -2.765160 0.534572 -17.125737 4.675408 6.875994 -75.018032 -30.000799 -3.429120 -9.582460 -36.646198 -1.500290 37.129101 0.000000 -29.042500 0.000000 8.037920 7.189940 0.143683 28.171400 1.748870 -3.499760 38.641602 6.322810 28.144400 0.000000 28.291800 0.000000 -4.987330 -0.701567 -9.814550 9.528555 19.438389 11.118437 0.000000 0.000000 0.291630 -7.059627 8.445513 7.792124 0.000000 0.000000 -10.199110 8.920763 8.486526 6.677108 0.000000 0.000000 8.121970 14.224677 -21.068013 11.222009 0.000000 0.000000 -15.053427 
-16.233271 9.304666 38.431595 -172.459390 1.602466 177.260470 6.384872 -2.635634 -20.987648 0.070087 -0.080293 37.560544 0.000000 0.000000 0.000000 -2.693144 0.635371 -17.183258 4.760432 6.934774 -74.754185 -29.729900 -3.639660 -9.746850 -36.497898 -1.492720 37.110600 0.000000 -29.170700 0.000000 8.083580 7.129770 0.219001 28.170300 1.934240 -3.420540 38.623600 6.605300 28.190500 0.000000 28.613600 0.000000 -5.268880 -0.581868 -9.758910 9.537236 19.623131 11.002586 0.000000 0.000000 0.260186 -6.996921 8.341649 7.919685 0.000000 0.000000 -10.214260 8.932114 8.583586 6.371982 0.000000 0.000000 8.427310 14.164617 -21.101277 11.246541 0.000000 0.000000 -15.048013 
-16.231113 9.305686 38.455864 -172.482234 1.662759 177.258729 6.623632 -2.193401 -20.706068 -0.727097 -0.313986 37.946769 0.000000 0.000000 0.000000 -2.321775 0.820494 -16.968983 4.863324 7.063302 -74.142937 -29.226500 -3.851100 -9.697940 -36.367001 -1.563040 36.934399 0.000000 -29.265900 0.000000 8.190610 7.113320 0.220918 28.303499 2.183880 -3.370100 38.675598 6.789650 28.246599 0.000000 28.942900 0.000000 -5.458640 -0.471284 -9.762940 9.501211 19.743998 10.898347 0.000000 0.000000 0.211283 -6.901184 8.309124 8.054735 0.000000 0.000000 -10.191790 8.901356 8.605384 6.083258 0.000000 0.000000 8.702520 14.012588 -21.070573 11.248688 0.000000 0.000000 -14.900499 
-16.229356 9.306535 38.484278 -172.519015 1.715099 177.296839 6.864785 -1.749799 -20.375523 -1.512300 -0.543840 38.206133 0.000000 0.000000 0.000000 -1.932365 1.048420 -16.244422 5.133532 7.199773 -73.329297 -28.698299 -4.150660 -9.616160 -36.248798 -1.590070 36.834202 0.000000 -29.304300 0.000000 8.288480 7.238220 0.166202 28.439301 2.438390 -3.277370 38.697201 6.952700 28.316601 0.000000 29.202900 0.000000 -5.561250 -0.357153 -10.092400 9.423870 19.859113 10.716678 0.000000 0.000000 0.176479 -6.805354 8.285321 8.190009 0.000000 0.000000 -10.178800 8.835102 8.552700 5.737545 0.000000 0.000000 8.975400 13.996988 -20.988108 11.265771 0.000000 0.000000 -14.957988 
